<?xml version="1.0" encoding="UTF-8"?>
<svg width="640" height="480" viewBox="0 0 640 480" fill="none" xmlns="http://www.w3.org/2000/svg">
  <defs>
    <linearGradient id="bgGradient" x1="134" y1="41" x2="520" y2="427" gradientUnits="userSpaceOnUse">
      <stop stop-color="#E3D9FF"/>
      <stop offset="1" stop-color="#C2C9FF"/>
    </linearGradient>
    <linearGradient id="roofGradient" x1="320" y1="132" x2="320" y2="214" gradientUnits="userSpaceOnUse">
      <stop stop-color="#5247CF"/>
      <stop offset="1" stop-color="#312A89"/>
    </linearGradient>
    <linearGradient id="wallGradient" x1="320" y1="188" x2="320" y2="320" gradientUnits="userSpaceOnUse">
      <stop stop-color="#F9F8FF"/>
      <stop offset="1" stop-color="#D8DBFF"/>
    </linearGradient>
    <linearGradient id="coinGradient" x1="0" y1="0" x2="1" y2="1">
      <stop stop-color="#F7D27A"/>
      <stop offset="1" stop-color="#F0C053"/>
    </linearGradient>
    <linearGradient id="craneGradient" x1="446" y1="78" x2="446" y2="304" gradientUnits="userSpaceOnUse">
      <stop stop-color="#F9D89A"/>
      <stop offset="1" stop-color="#E4B76B"/>
    </linearGradient>
    <filter id="shadow" x="-40" y="250" width="720" height="170" filterUnits="userSpaceOnUse" color-interpolation-filters="sRGB">
      <feGaussianBlur in="SourceAlpha" stdDeviation="18"/>
      <feOffset dy="12"/>
      <feComponentTransfer>
        <feFuncA type="linear" slope="0.18"/>
      </feComponentTransfer>
      <feMerge>
        <feMergeNode/>
        <feMergeNode in="SourceGraphic"/>
      </feMerge>
    </filter>
  </defs>

  <rect width="640" height="480" rx="32" fill="url(#bgGradient)"/>

  <g filter="url(#shadow)" opacity="0.4">
    <ellipse cx="320" cy="356" rx="220" ry="48" fill="#979CD6"/>
  </g>

  <!-- Crane -->
  <g>
    <rect x="434" y="150" width="12" height="172" rx="4" fill="url(#craneGradient)"/>
    <rect x="428" y="140" width="24" height="12" rx="3" fill="url(#craneGradient)"/>
    <path d="M472 138L450 118H370L340 98" stroke="url(#craneGradient)" stroke-width="10" stroke-linecap="round" stroke-linejoin="round"/>
    <path d="M448 121L448 198" stroke="url(#craneGradient)" stroke-width="6" stroke-linecap="round"/>
    <circle cx="448" cy="212" r="42" fill="url(#coinGradient)"/>
    <path d="M446 184C454 186 456 190 456 195C456 202 450 206 444 211C438 216 436 219 436 224C436 228 438 232 442 234" stroke="#C99A3D" stroke-width="6" stroke-linecap="round"/>
  </g>

  <!-- House -->
  <g>
    <path d="M220 212L320 148L420 212V332H220V212Z" fill="url(#wallGradient)"/>
    <path d="M320 144L220 212H420L320 144Z" fill="url(#roofGradient)"/>
    <rect x="272" y="254" width="48" height="78" fill="#B4B9E8"/>
    <rect x="272" y="254" width="48" height="78" stroke="#7C82C3" stroke-width="4"/>
    <rect x="304" y="268" width="16" height="64" fill="#F5F6FF"/>
    <rect x="256" y="228" width="42" height="42" fill="#F5F6FF" stroke="#9298D1" stroke-width="6"/>
    <rect x="342" y="228" width="42" height="42" fill="#F5F6FF" stroke="#9298D1" stroke-width="6"/>
    <rect x="256" y="228" width="42" height="42" fill="#9DA3DA" opacity="0.2"/>
    <rect x="342" y="228" width="42" height="42" fill="#9DA3DA" opacity="0.2"/>
    <path d="M320 148L420 212V224L320 160L220 224V212L320 148Z" fill="#3D358C"/>
  </g>

  <!-- Coins -->
  <g opacity="0.9">
    <ellipse cx="184" cy="342" rx="28" ry="10" fill="#B7BBE7"/>
    <ellipse cx="456" cy="338" rx="30" ry="12" fill="#A6ACDE"/>
    <g transform="translate(154 316)">
      <ellipse cx="26" cy="17" rx="26" ry="12" fill="url(#coinGradient)"/>
      <ellipse cx="26" cy="10" rx="26" ry="12" fill="url(#coinGradient)" opacity="0.75"/>
    </g>
    <g transform="translate(440 304)">
      <ellipse cx="22" cy="14" rx="22" ry="9" fill="url(#coinGradient)"/>
      <ellipse cx="22" cy="7" rx="22" ry="9" fill="url(#coinGradient)" opacity="0.75"/>
    </g>
    <g transform="translate(210 332)">
      <ellipse cx="18" cy="10" rx="18" ry="8" fill="url(#coinGradient)"/>
      <ellipse cx="18" cy="4" rx="18" ry="8" fill="url(#coinGradient)" opacity="0.7"/>
    </g>
  </g>

  <!-- Decorative dust -->
  <g fill="#FFFFFF" opacity="0.6">
    <circle cx="120" cy="290" r="6"/>
    <circle cx="160" cy="268" r="4"/>
    <circle cx="520" cy="284" r="5"/>
    <circle cx="500" cy="260" r="3"/>
    <circle cx="540" cy="304" r="4"/>
  </g>
</svg>

